<svg width="52" height="52" viewBox="0 0 52 52" fill="none" xmlns="http://www.w3.org/2000/svg">
<path d="M17.5009 8.23811C9.49228 11.9726 6.0992 21.6463 9.76189 29.5009C13.4246 37.3556 20.7212 38.2802 24.3695 38.7426C29.7756 39.2936 33.1848 41.8722 34.1239 43.8862C33.1848 41.8722 33.4008 37.6031 36.4536 33.1076C38.4446 30.0157 42.4264 23.8318 38.7637 15.9771C35.1011 8.12247 25.5096 4.50362 17.5009 8.23811Z" fill="#2D3142" stroke="#F0F0F0" stroke-linejoin="round"/>
<circle cx="24.2628" cy="22.7391" r="10.6667" transform="rotate(-25 24.2628 22.7391)" fill="#65C487"/>
<path d="M16.789 23.0347C16.5916 23.1268 16.3724 23.1607 16.1593 23.1322C15.9462 23.1037 15.7486 23.0141 15.5916 22.8747C15.4346 22.7352 15.3252 22.5523 15.2772 22.3489C15.2293 22.1455 15.2449 21.9308 15.3222 21.732C15.3995 21.5332 15.5349 21.3593 15.7113 21.2321C15.8878 21.1049 16.0973 21.0302 16.3134 21.0175C16.5296 21.0048 16.7426 21.0546 16.9256 21.1607C17.1086 21.2667 17.2533 21.4243 17.3415 21.6133C17.4597 21.8669 17.4679 22.159 17.3643 22.4256C17.2607 22.6922 17.0538 22.9113 16.789 23.0347ZM28.4019 15.292C28.2045 15.384 28.0377 15.5301 27.9225 15.7117C27.8073 15.8933 27.749 16.1022 27.7549 16.3121C27.7608 16.522 27.8306 16.7235 27.9556 16.8909C28.0806 17.0584 28.2551 17.1844 28.457 17.253C28.659 17.3216 28.8793 17.3297 29.0901 17.2763C29.301 17.2228 29.4929 17.1103 29.6415 16.9529C29.7902 16.7955 29.889 16.6003 29.9253 16.3919C29.9617 16.1836 29.9341 15.9715 29.8459 15.7824C29.7276 15.5291 29.509 15.3352 29.2383 15.2434C28.9676 15.1515 28.6669 15.1693 28.4023 15.2927L28.4019 15.292ZM29.8168 18.3305C29.6509 18.4078 29.4893 18.4896 29.331 18.5781C29.2397 18.627 29.1481 18.6799 29.0611 18.7334C28.6424 18.9888 28.2488 19.2821 27.8855 19.6092C27.7429 19.741 27.6036 19.8753 27.4704 20.0175C27.4037 20.0864 27.3388 20.1588 27.2745 20.2328L27.2727 20.2337C27.1898 20.329 27.1097 20.4253 27.033 20.524L27.0311 20.5249C26.9043 20.5209 26.7791 20.5205 26.652 20.521C25.5885 20.5462 24.5354 20.7936 23.5643 21.2464C22.5932 21.6992 21.7268 22.3469 21.0239 23.1454C20.9419 23.2425 20.8617 23.3386 20.7832 23.4383C20.6581 23.4336 20.5328 23.4332 20.4067 23.4354L20.4048 23.4362C20.3068 23.4379 20.2105 23.4428 20.114 23.4478C19.9195 23.4587 19.7273 23.4795 19.5344 23.5034C19.0504 23.5718 18.5727 23.6849 18.1078 23.841C18.0075 23.8751 17.9115 23.9094 17.8132 23.949C17.6437 24.0133 17.4754 24.0854 17.3115 24.1618L16.8195 24.3912L20.0518 31.3229L22.6883 30.0935L22.2481 29.1495L20.6191 29.9091C20.5782 29.7979 20.5417 29.6867 20.5088 29.5739C20.4759 29.4611 20.4457 29.3492 20.4193 29.2358C20.3677 29.0112 20.3296 28.7834 20.3052 28.5536C20.2956 28.4719 20.2886 28.3911 20.2842 28.3112C20.2422 27.6893 20.2996 27.0616 20.4543 26.4503C20.5548 26.0372 20.7001 25.6342 20.8876 25.2482L20.8893 25.2474C20.9254 25.1739 20.9613 25.1004 21.0005 25.0295C21.0071 25.0156 21.0148 25.0022 21.0236 24.9894C21.0331 24.9651 21.0453 24.9417 21.0601 24.9199C21.078 24.8843 21.0976 24.8498 21.1167 24.8157C21.1456 24.7692 21.1738 24.7218 21.2044 24.6741L21.2061 24.6733C21.2349 24.6268 21.2633 24.5794 21.2925 24.5339C21.2925 24.5339 21.2943 24.533 21.2951 24.5347L21.3768 24.414C21.3729 24.4124 21.3688 24.4115 21.3646 24.4112C21.5898 24.0816 21.8473 23.7734 22.1335 23.4912L22.1353 23.4904L22.1405 23.4921C22.1959 23.4368 22.2514 23.3816 22.3101 23.3289C23.3188 22.3935 24.6035 21.7944 25.9685 21.623C26.0742 21.6096 26.1808 21.5975 26.2866 21.5903C26.3017 21.5895 26.3142 21.588 26.329 21.587L26.3271 21.592C26.7338 21.5628 27.1411 21.5727 27.5431 21.6217C27.5429 21.6212 27.5429 21.6207 27.5431 21.6202C27.5432 21.6197 27.5436 21.6193 27.5441 21.619C27.5434 21.6174 27.5452 21.6166 27.5452 21.6166C27.5986 21.6232 27.653 21.6314 27.7074 21.64L27.7092 21.6392C27.7644 21.6465 27.82 21.6547 27.874 21.663C27.912 21.6706 27.951 21.6777 27.9902 21.6866C28.0313 21.6931 28.0719 21.7018 28.1119 21.7125C28.1915 21.7279 28.271 21.7476 28.3503 21.7673C28.3511 21.769 28.3511 21.769 28.3522 21.7664C29.3887 22.029 30.33 22.5477 31.0864 23.2731C31.096 23.2815 31.1047 23.2909 31.1125 23.3009C31.1626 23.3469 31.2107 23.3938 31.2587 23.445C31.419 23.6114 31.569 23.787 31.7079 23.9709C31.7779 24.0642 31.8441 24.1594 31.9101 24.2564C31.976 24.3535 32.0366 24.4537 32.096 24.5563L30.4659 25.3164L30.9065 26.2612L33.5427 25.032L30.3107 18.101L29.8168 18.3305Z" fill="white"/>
</svg>
