<svg width="52" height="52" viewBox="0 0 52 52" fill="none" xmlns="http://www.w3.org/2000/svg">
<path d="M9.19733 39.1165C9.04056 39.706 8.6959 40.2278 8.21604 40.602C7.73618 40.9762 7.14752 41.1823 6.54001 41.1888C4.99381 41.1888 3.3368 40.0985 3.3368 36.9928V36.5561C3.3368 33.4509 4.99406 32.3602 6.54001 32.3602C7.10994 32.3668 7.66434 32.5476 8.12942 32.8786C8.59449 33.2095 8.94817 33.6748 9.1434 34.2126L12.1816 32.9882C11.7606 31.8243 10.9936 30.8184 9.98453 30.1068C8.97546 29.3951 7.77304 29.012 6.54001 29.0093C3.12085 29.0093 0 31.5694 0 36.5561V36.9938C0 41.9803 3.12085 44.5407 6.54001 44.5407C9.03531 44.5407 11.3139 43.205 12.264 40.3735L9.19733 39.1165Z" fill="#333333"/>
<path d="M14.5441 29.0016V44.4011H17.9823V29.0016H14.5441Z" fill="#333333"/>
<path d="M30.2636 29.0016L27.0765 39.6822L23.8636 29.0016H20.2614L25.3458 44.4011H28.7802L33.8658 29.0016H30.2636Z" fill="#333333"/>
<path d="M36.1741 29.0016V44.4011H39.6086V29.0016H36.1741Z" fill="#333333"/>
<path d="M45.714 33.6529C45.6032 32.9715 46.1739 32.3725 47.0683 32.3725C47.801 32.3725 48.5846 32.8346 48.9111 33.8695L51.9745 33.0539C51.6777 30.8214 49.479 29.0249 46.8496 29.0249C44.1127 29.0249 41.9464 30.9839 41.9464 33.4618C41.9464 38.0898 48.3147 37.545 48.3971 39.7236C48.4218 40.5931 47.7725 41.0837 46.932 41.0837C46.0915 41.0837 45.3591 40.4309 45.1973 39.4499L41.9177 40.3474C42.3777 42.8795 44.4929 44.5389 47.0396 44.5389C49.9416 44.5389 52 42.5802 52 39.8854C52 34.8761 46.0109 35.5577 45.714 33.6529Z" fill="#333333"/>
<path d="M15.0826 4.50117C14.7379 4.50117 14.4008 4.3985 14.1142 4.20614C13.8275 4.01378 13.6041 3.74038 13.4722 3.4205C13.3403 3.10062 13.3057 2.74864 13.373 2.40906C13.4403 2.06948 13.6063 1.75756 13.85 1.51274C14.0938 1.26791 14.4044 1.10118 14.7425 1.03364C15.0807 0.96609 15.4312 1.00076 15.7497 1.13326C16.0682 1.26576 16.3404 1.49013 16.5319 1.77801C16.7235 2.06589 16.8257 2.40436 16.8257 2.75059C16.8257 3.21487 16.6421 3.66014 16.3152 3.98843C15.9883 4.31673 15.5449 4.50117 15.0826 4.50117V4.50117ZM36.9174 1C36.5727 1 36.2357 1.10267 35.949 1.29503C35.6624 1.48739 35.4389 1.76079 35.307 2.08067C35.1751 2.40055 35.1406 2.75253 35.2078 3.09211C35.2751 3.43169 35.4411 3.74361 35.6849 3.98843C35.9286 4.23326 36.2392 4.39999 36.5774 4.46753C36.9155 4.53508 37.266 4.50041 37.5845 4.36791C37.903 4.23541 38.1752 4.01104 38.3667 3.72316C38.5583 3.43528 38.6605 3.09682 38.6605 2.75059C38.6602 2.28652 38.4764 1.84157 38.1495 1.51354C37.8227 1.18551 37.3795 1.00124 36.9174 1.00124V1ZM36.9145 6.56301C36.6248 6.56301 36.3384 6.5727 36.0522 6.59481C35.8884 6.60425 35.7217 6.61965 35.5612 6.63903C34.7899 6.72958 34.029 6.89464 33.2893 7.13189C32.9966 7.23001 32.707 7.33434 32.4208 7.45482C32.2791 7.51171 32.1376 7.57506 31.9958 7.64138H31.9926C31.8101 7.72659 31.6308 7.81527 31.4546 7.90992H31.4514C31.2721 7.81502 31.0928 7.72659 30.9102 7.63815C29.368 6.93003 27.6922 6.56353 25.9964 6.56353C24.3007 6.56353 22.6248 6.93003 21.0826 7.63815C20.9001 7.72659 20.7208 7.81502 20.5414 7.90992C20.3653 7.81502 20.1857 7.72659 20.0034 7.64138H20.0002C19.8585 7.57506 19.717 7.51494 19.5753 7.45482C19.2891 7.33484 18.9994 7.23125 18.7068 7.13189C17.9669 6.8953 17.2061 6.73026 16.4349 6.63903C16.2682 6.6199 16.1076 6.60425 15.9402 6.59481C15.654 6.5727 15.3643 6.56301 15.0782 6.56301H14.2191V19.257H18.8228V17.5283H15.9783C15.9941 17.3323 16.0161 17.1395 16.0443 16.9468C16.0725 16.754 16.1042 16.5645 16.142 16.3754C16.2183 16.0013 16.316 15.632 16.4346 15.2692C16.4755 15.1395 16.5196 15.0131 16.5667 14.8899C16.9224 13.9249 17.4245 13.0209 18.0553 12.21C18.4758 11.659 18.9536 11.1546 19.4808 10.7056H19.4838C19.5847 10.6204 19.6853 10.5349 19.789 10.4559C19.8077 10.4395 19.8277 10.4248 19.8488 10.4117C19.8788 10.3817 19.912 10.3552 19.9478 10.3327C19.9973 10.2917 20.0485 10.2537 20.0987 10.2157C20.1711 10.166 20.2434 10.1146 20.3191 10.0642H20.322C20.3945 10.0145 20.467 9.96307 20.5392 9.91512C20.5392 9.91512 20.5424 9.91513 20.5424 9.91811L20.7403 9.7939C20.7359 9.78881 20.7306 9.78451 20.7247 9.78123C21.2682 9.44327 21.8437 9.16034 22.4428 8.93662H22.446L22.4522 8.94283C22.5687 8.89861 22.6852 8.8544 22.8047 8.81639C24.8771 8.11686 27.1204 8.11686 29.1928 8.81639C29.3534 8.8703 29.5144 8.92693 29.671 8.99028C29.6932 8.99972 29.712 9.00618 29.7341 9.01512L29.7279 9.02133C30.3307 9.26265 30.9083 9.56329 31.4522 9.91885C31.4522 9.918 31.4525 9.91718 31.4531 9.91657C31.4537 9.91597 31.4545 9.91562 31.4554 9.91562C31.4554 9.91264 31.4586 9.91265 31.4586 9.91265C31.5308 9.96009 31.6033 10.0105 31.6755 10.0617H31.6787C31.7529 10.1114 31.8272 10.1628 31.8991 10.2132C31.9486 10.2512 31.9998 10.2892 32.05 10.3302C32.1046 10.3688 32.1571 10.4103 32.2073 10.4544C32.3112 10.5334 32.4119 10.6189 32.5126 10.7041C32.5126 10.7073 32.5126 10.7073 32.5158 10.7041C33.8269 11.8261 34.8301 13.2666 35.4298 14.8884C35.4379 14.9078 35.4442 14.9279 35.4486 14.9485C35.4897 15.0529 35.5273 15.1572 35.5619 15.2677C35.6805 15.6305 35.7782 15.9999 35.8546 16.3739C35.8924 16.5635 35.9238 16.753 35.9535 16.9453C35.9832 17.1376 36.003 17.3308 36.0195 17.5268H33.1732V19.257H37.7765V6.56426L36.9145 6.56301Z" fill="#65C487"/>
</svg>
