<svg width="144" height="52" viewBox="0 0 144 52" fill="none" xmlns="http://www.w3.org/2000/svg">
<path d="M17.5009 8.23811C9.49228 11.9726 6.0992 21.6463 9.76189 29.5009C13.4246 37.3556 20.7212 38.2802 24.3695 38.7426C29.7756 39.2936 33.1848 41.8722 34.1239 43.8862C33.1848 41.8722 33.4008 37.6031 36.4536 33.1076C38.4446 30.0157 42.4264 23.8318 38.7637 15.9771C35.1011 8.12247 25.5096 4.50362 17.5009 8.23811Z" fill="#FAFAFA" stroke="#2D3142" stroke-linejoin="round"/>
<circle cx="24.2628" cy="22.7391" r="10.6667" transform="rotate(-25 24.2628 22.7391)" fill="#65C487"/>
<path d="M16.789 23.0347C16.5916 23.1268 16.3724 23.1607 16.1593 23.1322C15.9462 23.1037 15.7486 23.0141 15.5916 22.8747C15.4346 22.7352 15.3252 22.5523 15.2772 22.3489C15.2293 22.1455 15.2449 21.9308 15.3222 21.732C15.3995 21.5332 15.5349 21.3593 15.7113 21.2321C15.8878 21.1049 16.0973 21.0302 16.3134 21.0175C16.5296 21.0048 16.7426 21.0546 16.9256 21.1607C17.1086 21.2667 17.2533 21.4243 17.3415 21.6133C17.4597 21.8669 17.4679 22.159 17.3643 22.4256C17.2607 22.6922 17.0538 22.9113 16.789 23.0347ZM28.4019 15.292C28.2045 15.384 28.0377 15.5301 27.9225 15.7117C27.8073 15.8933 27.749 16.1022 27.7549 16.3121C27.7608 16.522 27.8306 16.7235 27.9556 16.8909C28.0806 17.0584 28.2551 17.1844 28.457 17.253C28.659 17.3216 28.8793 17.3297 29.0901 17.2763C29.301 17.2228 29.4929 17.1103 29.6415 16.9529C29.7902 16.7955 29.889 16.6003 29.9253 16.3919C29.9617 16.1836 29.9341 15.9715 29.8459 15.7824C29.7276 15.5291 29.509 15.3352 29.2383 15.2434C28.9676 15.1515 28.6669 15.1693 28.4023 15.2927L28.4019 15.292ZM29.8168 18.3305C29.6509 18.4078 29.4893 18.4896 29.331 18.5781C29.2397 18.627 29.1481 18.6799 29.0611 18.7334C28.6424 18.9888 28.2488 19.2821 27.8855 19.6092C27.7429 19.741 27.6036 19.8753 27.4704 20.0175C27.4037 20.0864 27.3388 20.1588 27.2745 20.2328L27.2727 20.2337C27.1898 20.329 27.1097 20.4253 27.033 20.524L27.0311 20.5249C26.9043 20.5209 26.7791 20.5205 26.652 20.521C25.5885 20.5462 24.5354 20.7936 23.5643 21.2464C22.5932 21.6992 21.7268 22.3469 21.0239 23.1454C20.9419 23.2425 20.8617 23.3386 20.7832 23.4383C20.6581 23.4336 20.5328 23.4332 20.4067 23.4354L20.4048 23.4362C20.3068 23.4379 20.2105 23.4428 20.114 23.4478C19.9195 23.4587 19.7273 23.4795 19.5344 23.5034C19.0504 23.5718 18.5727 23.6849 18.1078 23.841C18.0075 23.8751 17.9115 23.9094 17.8132 23.949C17.6437 24.0133 17.4754 24.0854 17.3115 24.1618L16.8195 24.3912L20.0518 31.3229L22.6883 30.0935L22.2481 29.1495L20.6191 29.9091C20.5782 29.7979 20.5417 29.6867 20.5088 29.5739C20.4759 29.4611 20.4457 29.3492 20.4193 29.2358C20.3677 29.0112 20.3296 28.7834 20.3052 28.5536C20.2956 28.4719 20.2886 28.3911 20.2842 28.3112C20.2422 27.6893 20.2996 27.0616 20.4543 26.4503C20.5548 26.0372 20.7001 25.6342 20.8876 25.2482L20.8893 25.2474C20.9254 25.1739 20.9613 25.1004 21.0005 25.0295C21.0071 25.0156 21.0148 25.0022 21.0236 24.9894C21.0331 24.9651 21.0453 24.9417 21.0601 24.9199C21.078 24.8843 21.0976 24.8498 21.1167 24.8157C21.1456 24.7692 21.1738 24.7218 21.2044 24.6741L21.2061 24.6733C21.2349 24.6268 21.2633 24.5794 21.2925 24.5339C21.2925 24.5339 21.2943 24.533 21.2951 24.5347L21.3768 24.414C21.3729 24.4124 21.3688 24.4115 21.3646 24.4112C21.5898 24.0816 21.8473 23.7734 22.1335 23.4912L22.1353 23.4904L22.1405 23.4921C22.1959 23.4368 22.2514 23.3816 22.3101 23.3289C23.3188 22.3935 24.6035 21.7944 25.9685 21.623C26.0742 21.6096 26.1808 21.5975 26.2866 21.5903C26.3017 21.5895 26.3142 21.588 26.329 21.587L26.3271 21.592C26.7338 21.5628 27.1411 21.5727 27.5431 21.6217C27.5429 21.6212 27.5429 21.6207 27.5431 21.6202C27.5432 21.6197 27.5436 21.6193 27.5441 21.619C27.5434 21.6174 27.5452 21.6166 27.5452 21.6166C27.5986 21.6232 27.653 21.6314 27.7074 21.64L27.7092 21.6392C27.7644 21.6465 27.82 21.6547 27.874 21.663C27.912 21.6706 27.951 21.6777 27.9902 21.6866C28.0313 21.6931 28.0719 21.7018 28.1119 21.7125C28.1915 21.7279 28.271 21.7476 28.3503 21.7673C28.3511 21.769 28.3511 21.769 28.3522 21.7664C29.3887 22.029 30.33 22.5477 31.0864 23.2731C31.096 23.2815 31.1047 23.2909 31.1125 23.3009C31.1626 23.3469 31.2107 23.3938 31.2587 23.445C31.419 23.6114 31.569 23.787 31.7079 23.9709C31.7779 24.0642 31.8441 24.1594 31.9101 24.2564C31.976 24.3535 32.0366 24.4537 32.096 24.5563L30.4659 25.3164L30.9065 26.2612L33.5427 25.032L30.3107 18.101L29.8168 18.3305Z" fill="white"/>
<path d="M70.7662 10.9091H74.6845L78.0083 19.0142H78.1618L81.4856 10.9091H85.4039V24H82.323V15.9588H82.2143L79.0694 23.9169H77.1007L73.9558 15.9141H73.8471V24H70.7662V10.9091ZM91.9606 24.1854C90.9293 24.1854 90.043 23.9744 89.3015 23.5526C88.5643 23.1264 87.9954 22.5341 87.5948 21.7756C87.1985 21.0128 87.0004 20.1286 87.0004 19.1229C87.0004 18.1129 87.1985 17.2287 87.5948 16.4702C87.9954 15.7074 88.5643 15.1151 89.3015 14.6932C90.043 14.267 90.9293 14.054 91.9606 14.054C92.9918 14.054 93.8761 14.267 94.6133 14.6932C95.3548 15.1151 95.9237 15.7074 96.32 16.4702C96.7205 17.2287 96.9208 18.1129 96.9208 19.1229C96.9208 20.1286 96.7205 21.0128 96.32 21.7756C95.9237 22.5341 95.3548 23.1264 94.6133 23.5526C93.8761 23.9744 92.9918 24.1854 91.9606 24.1854ZM91.9798 21.8267C92.3548 21.8267 92.6722 21.7116 92.9322 21.4815C93.1921 21.2514 93.3903 20.9318 93.5266 20.5227C93.6673 20.1136 93.7376 19.6406 93.7376 19.1037C93.7376 18.5582 93.6673 18.081 93.5266 17.6719C93.3903 17.2628 93.1921 16.9432 92.9322 16.7131C92.6722 16.483 92.3548 16.3679 91.9798 16.3679C91.592 16.3679 91.2638 16.483 90.9954 16.7131C90.7312 16.9432 90.5288 17.2628 90.3881 17.6719C90.2518 18.081 90.1836 18.5582 90.1836 19.1037C90.1836 19.6406 90.2518 20.1136 90.3881 20.5227C90.5288 20.9318 90.7312 21.2514 90.9954 21.4815C91.2638 21.7116 91.592 21.8267 91.9798 21.8267ZM103.099 27.8864C102.165 27.8864 101.366 27.7564 100.702 27.4964C100.037 27.2365 99.5149 26.8807 99.1357 26.429C98.7564 25.9773 98.5284 25.4659 98.4517 24.8949L101.411 24.7287C101.467 24.929 101.569 25.1037 101.718 25.2528C101.871 25.402 102.07 25.517 102.312 25.598C102.56 25.679 102.849 25.7195 103.182 25.7195C103.706 25.7195 104.138 25.5916 104.479 25.3359C104.825 25.0845 104.997 24.6435 104.997 24.0128V22.2869H104.888C104.765 22.5895 104.577 22.8601 104.326 23.0987C104.075 23.3374 103.761 23.5249 103.386 23.6612C103.016 23.7976 102.589 23.8658 102.108 23.8658C101.392 23.8658 100.736 23.6996 100.139 23.3672C99.5469 23.0305 99.0717 22.5107 98.7138 21.8075C98.3601 21.1001 98.1832 20.1903 98.1832 19.0781C98.1832 17.9318 98.3665 16.9879 98.733 16.2464C99.0994 15.5007 99.5788 14.9489 100.171 14.5909C100.768 14.233 101.409 14.054 102.095 14.054C102.611 14.054 103.052 14.1435 103.418 14.3224C103.789 14.4972 104.094 14.723 104.332 15C104.571 15.277 104.752 15.5646 104.876 15.8629H104.965V14.1818H108.078V24.0384C108.078 24.8693 107.869 25.5703 107.452 26.1413C107.034 26.7124 106.45 27.1449 105.7 27.4389C104.95 27.7372 104.083 27.8864 103.099 27.8864ZM103.195 21.5902C103.574 21.5902 103.898 21.4901 104.166 21.2898C104.435 21.0895 104.641 20.8018 104.786 20.4268C104.931 20.0518 105.004 19.6023 105.004 19.0781C105.004 18.5455 104.931 18.0874 104.786 17.7038C104.646 17.3161 104.439 17.0178 104.166 16.8089C103.898 16.6001 103.574 16.4957 103.195 16.4957C102.807 16.4957 102.479 16.6023 102.21 16.8153C101.942 17.0284 101.737 17.3288 101.597 17.7166C101.46 18.1001 101.392 18.554 101.392 19.0781C101.392 19.6023 101.462 20.0518 101.603 20.4268C101.744 20.8018 101.946 21.0895 102.21 21.2898C102.479 21.4901 102.807 21.5902 103.195 21.5902ZM114.654 24.1854C113.623 24.1854 112.736 23.9744 111.995 23.5526C111.258 23.1264 110.689 22.5341 110.288 21.7756C109.892 21.0128 109.694 20.1286 109.694 19.1229C109.694 18.1129 109.892 17.2287 110.288 16.4702C110.689 15.7074 111.258 15.1151 111.995 14.6932C112.736 14.267 113.623 14.054 114.654 14.054C115.685 14.054 116.569 14.267 117.307 14.6932C118.048 15.1151 118.617 15.7074 119.013 16.4702C119.414 17.2287 119.614 18.1129 119.614 19.1229C119.614 20.1286 119.414 21.0128 119.013 21.7756C118.617 22.5341 118.048 23.1264 117.307 23.5526C116.569 23.9744 115.685 24.1854 114.654 24.1854ZM114.673 21.8267C115.048 21.8267 115.366 21.7116 115.626 21.4815C115.885 21.2514 116.084 20.9318 116.22 20.5227C116.361 20.1136 116.431 19.6406 116.431 19.1037C116.431 18.5582 116.361 18.081 116.22 17.6719C116.084 17.2628 115.885 16.9432 115.626 16.7131C115.366 16.483 115.048 16.3679 114.673 16.3679C114.285 16.3679 113.957 16.483 113.689 16.7131C113.425 16.9432 113.222 17.2628 113.081 17.6719C112.945 18.081 112.877 18.5582 112.877 19.1037C112.877 19.6406 112.945 20.1136 113.081 20.5227C113.222 20.9318 113.425 21.2514 113.689 21.4815C113.957 21.7116 114.285 21.8267 114.673 21.8267ZM59.9229 35.1797L57.0528 35.2564C57.023 35.0518 56.942 34.8707 56.8099 34.7131C56.6778 34.5511 56.5052 34.4254 56.2922 34.3359C56.0834 34.2422 55.8405 34.1953 55.5635 34.1953C55.2013 34.1953 54.8923 34.2678 54.6366 34.4126C54.3852 34.5575 54.2616 34.7536 54.2659 35.0007C54.2616 35.1925 54.3383 35.3587 54.496 35.4993C54.6579 35.6399 54.9456 35.7528 55.3589 35.8381L57.251 36.196C58.2311 36.3835 58.9598 36.6946 59.4371 37.1293C59.9186 37.5639 60.1615 38.1392 60.1657 38.8551C60.1615 39.5284 59.9612 40.1143 59.5649 40.6129C59.1729 41.1115 58.6359 41.4993 57.9541 41.7763C57.2723 42.049 56.4925 42.1854 55.6146 42.1854C54.2126 42.1854 53.1068 41.8977 52.2971 41.3224C51.4917 40.7429 51.0315 39.9673 50.9165 38.9957L54.0038 38.919C54.072 39.277 54.2488 39.5497 54.5344 39.7372C54.8199 39.9247 55.1842 40.0185 55.6274 40.0185C56.028 40.0185 56.354 39.9439 56.6054 39.7947C56.8568 39.6456 56.9846 39.4474 56.9889 39.2003C56.9846 38.9787 56.8866 38.8018 56.6949 38.6697C56.5031 38.5334 56.2027 38.4268 55.7936 38.3501L54.0805 38.0241C53.0961 37.8452 52.3632 37.5149 51.8817 37.0334C51.4001 36.5476 51.1615 35.9297 51.1657 35.1797C51.1615 34.5234 51.3362 33.9631 51.6899 33.4986C52.0436 33.0298 52.5464 32.6719 53.1984 32.4247C53.8504 32.1776 54.6196 32.054 55.5059 32.054C56.8355 32.054 57.8838 32.3331 58.6508 32.8913C59.4179 33.4453 59.8419 34.2081 59.9229 35.1797ZM66.2941 42.1854C65.2671 42.1854 64.3808 41.983 63.635 41.5781C62.8936 41.169 62.3225 40.5874 61.922 39.8331C61.5257 39.0746 61.3275 38.1733 61.3275 37.1293C61.3275 36.1151 61.5278 35.2287 61.9284 34.4702C62.3289 33.7074 62.8936 33.1151 63.6222 32.6932C64.3509 32.267 65.2096 32.054 66.1982 32.054C66.8971 32.054 67.5363 32.1626 68.1159 32.38C68.6954 32.5973 69.1961 32.919 69.618 33.3452C70.0399 33.7713 70.368 34.2976 70.6024 34.924C70.8367 35.5462 70.9539 36.2599 70.9539 37.0653V37.8452H62.4205V36.0298H68.0455C68.0413 35.6974 67.9624 35.4013 67.809 35.1413C67.6556 34.8814 67.4447 34.679 67.1762 34.5341C66.912 34.3849 66.6073 34.3104 66.2622 34.3104C65.9127 34.3104 65.5995 34.3892 65.3225 34.5469C65.0455 34.7003 64.8261 34.9112 64.6642 35.1797C64.5022 35.4439 64.417 35.7443 64.4085 36.081V37.9283C64.4085 38.3288 64.4873 38.6804 64.645 38.983C64.8026 39.2812 65.0264 39.5135 65.3161 39.6797C65.6059 39.8459 65.9511 39.929 66.3517 39.929C66.6286 39.929 66.8801 39.8906 67.1059 39.8139C67.3318 39.7372 67.5257 39.6243 67.6876 39.4751C67.8495 39.326 67.971 39.1428 68.0519 38.9254L70.922 39.0085C70.8026 39.652 70.5406 40.2124 70.1357 40.6896C69.7352 41.1626 69.2089 41.5312 68.5569 41.7955C67.9049 42.0554 67.1507 42.1854 66.2941 42.1854ZM81.1221 35.1797L78.252 35.2564C78.2222 35.0518 78.1412 34.8707 78.0091 34.7131C77.877 34.5511 77.7045 34.4254 77.4914 34.3359C77.2826 34.2422 77.0397 34.1953 76.7627 34.1953C76.4005 34.1953 76.0915 34.2678 75.8358 34.4126C75.5844 34.5575 75.4608 34.7536 75.4651 35.0007C75.4608 35.1925 75.5376 35.3587 75.6952 35.4993C75.8572 35.6399 76.1448 35.7528 76.5582 35.8381L78.4502 36.196C79.4303 36.3835 80.159 36.6946 80.6363 37.1293C81.1178 37.5639 81.3607 38.1392 81.365 38.8551C81.3607 39.5284 81.1604 40.1143 80.7641 40.6129C80.3721 41.1115 79.8351 41.4993 79.1533 41.7763C78.4715 42.049 77.6917 42.1854 76.8138 42.1854C75.4118 42.1854 74.306 41.8977 73.4964 41.3224C72.691 40.7429 72.2307 39.9673 72.1157 38.9957L75.203 38.919C75.2712 39.277 75.4481 39.5497 75.7336 39.7372C76.0191 39.9247 76.3834 40.0185 76.8266 40.0185C77.2272 40.0185 77.5532 39.9439 77.8046 39.7947C78.056 39.6456 78.1839 39.4474 78.1881 39.2003C78.1839 38.9787 78.0858 38.8018 77.8941 38.6697C77.7023 38.5334 77.4019 38.4268 76.9928 38.3501L75.2797 38.0241C74.2954 37.8452 73.5624 37.5149 73.0809 37.0334C72.5993 36.5476 72.3607 35.9297 72.365 35.1797C72.3607 34.5234 72.5354 33.9631 72.8891 33.4986C73.2428 33.0298 73.7456 32.6719 74.3976 32.4247C75.0496 32.1776 75.8188 32.054 76.7052 32.054C78.0347 32.054 79.083 32.3331 79.8501 32.8913C80.6171 33.4453 81.0411 34.2081 81.1221 35.1797ZM82.9039 42V32.1818H86.0296V42H82.9039ZM84.4699 31.0376C84.031 31.0376 83.6539 30.8928 83.3385 30.603C83.0232 30.3089 82.8655 29.9553 82.8655 29.5419C82.8655 29.1328 83.0232 28.7834 83.3385 28.4936C83.6539 28.1996 84.031 28.0526 84.4699 28.0526C84.9131 28.0526 85.2902 28.1996 85.6013 28.4936C85.9166 28.7834 86.0743 29.1328 86.0743 29.5419C86.0743 29.9553 85.9166 30.3089 85.6013 30.603C85.2902 30.8928 84.9131 31.0376 84.4699 31.0376ZM88.0447 42V40.2166L92.5958 34.6747V34.6108H88.2045V32.1818H96.3224V34.1378L92.1036 39.5071V39.571H96.4758V42H88.0447ZM102.804 42.1854C101.777 42.1854 100.891 41.983 100.145 41.5781C99.4033 41.169 98.8323 40.5874 98.4317 39.8331C98.0354 39.0746 97.8373 38.1733 97.8373 37.1293C97.8373 36.1151 98.0376 35.2287 98.4381 34.4702C98.8387 33.7074 99.4033 33.1151 100.132 32.6932C100.861 32.267 101.719 32.054 102.708 32.054C103.407 32.054 104.046 32.1626 104.626 32.38C105.205 32.5973 105.706 32.919 106.128 33.3452C106.55 33.7713 106.878 34.2976 107.112 34.924C107.347 35.5462 107.464 36.2599 107.464 37.0653V37.8452H98.9303V36.0298H104.555C104.551 35.6974 104.472 35.4013 104.319 35.1413C104.165 34.8814 103.954 34.679 103.686 34.5341C103.422 34.3849 103.117 34.3104 102.772 34.3104C102.422 34.3104 102.109 34.3892 101.832 34.5469C101.555 34.7003 101.336 34.9112 101.174 35.1797C101.012 35.4439 100.927 35.7443 100.918 36.081V37.9283C100.918 38.3288 100.997 38.6804 101.155 38.983C101.312 39.2812 101.536 39.5135 101.826 39.6797C102.116 39.8459 102.461 39.929 102.861 39.929C103.138 39.929 103.39 39.8906 103.616 39.8139C103.842 39.7372 104.035 39.6243 104.197 39.4751C104.359 39.326 104.481 39.1428 104.562 38.9254L107.432 39.0085C107.312 39.652 107.05 40.2124 106.646 40.6896C106.245 41.1626 105.719 41.5312 105.067 41.7955C104.415 42.0554 103.66 42.1854 102.804 42.1854ZM111.828 42.1662C111.201 42.1662 110.645 42.0618 110.16 41.853C109.678 41.6399 109.297 41.3203 109.015 40.8942C108.738 40.4638 108.6 39.9247 108.6 39.277C108.6 38.7315 108.696 38.2713 108.888 37.8963C109.079 37.5213 109.343 37.2166 109.68 36.9822C110.017 36.7479 110.405 36.571 110.843 36.4517C111.282 36.3281 111.751 36.245 112.25 36.2024C112.808 36.1513 113.258 36.098 113.598 36.0426C113.939 35.983 114.187 35.8999 114.34 35.7933C114.498 35.6825 114.576 35.527 114.576 35.3267V35.2947C114.576 34.9666 114.464 34.7131 114.238 34.5341C114.012 34.3551 113.707 34.2656 113.324 34.2656C112.91 34.2656 112.578 34.3551 112.326 34.5341C112.075 34.7131 111.915 34.9602 111.847 35.2756L108.964 35.1733C109.049 34.5767 109.269 34.044 109.623 33.5753C109.981 33.1023 110.471 32.7315 111.093 32.4631C111.719 32.1903 112.471 32.054 113.349 32.054C113.976 32.054 114.553 32.1286 115.081 32.2777C115.61 32.4226 116.07 32.6357 116.462 32.9169C116.854 33.1939 117.157 33.5348 117.37 33.9396C117.587 34.3445 117.696 34.8068 117.696 35.3267V42H114.755V40.6321H114.679C114.504 40.9645 114.28 41.2457 114.008 41.4759C113.739 41.706 113.422 41.8786 113.055 41.9936C112.693 42.1087 112.284 42.1662 111.828 42.1662ZM112.793 40.1207C113.13 40.1207 113.432 40.0526 113.701 39.9162C113.973 39.7798 114.191 39.5923 114.353 39.3537C114.515 39.1108 114.596 38.8295 114.596 38.5099V37.5767C114.506 37.6236 114.397 37.6662 114.27 37.7045C114.146 37.7429 114.01 37.7791 113.861 37.8132C113.711 37.8473 113.558 37.8771 113.4 37.9027C113.243 37.9283 113.091 37.9517 112.946 37.973C112.652 38.0199 112.401 38.0923 112.192 38.1903C111.988 38.2884 111.83 38.4162 111.719 38.5739C111.613 38.7273 111.559 38.9105 111.559 39.1236C111.559 39.4474 111.674 39.6946 111.905 39.8651C112.139 40.0355 112.435 40.1207 112.793 40.1207ZM119.633 42V40.2166L124.184 34.6747V34.6108H119.792V32.1818H127.91V34.1378L123.691 39.5071V39.571H128.064V42H119.633ZM132.851 42.1662C132.225 42.1662 131.669 42.0618 131.183 41.853C130.701 41.6399 130.32 41.3203 130.039 40.8942C129.762 40.4638 129.623 39.9247 129.623 39.277C129.623 38.7315 129.719 38.2713 129.911 37.8963C130.103 37.5213 130.367 37.2166 130.704 36.9822C131.04 36.7479 131.428 36.571 131.867 36.4517C132.306 36.3281 132.775 36.245 133.273 36.2024C133.831 36.1513 134.281 36.098 134.622 36.0426C134.963 35.983 135.21 35.8999 135.363 35.7933C135.521 35.6825 135.6 35.527 135.6 35.3267V35.2947C135.6 34.9666 135.487 34.7131 135.261 34.5341C135.035 34.3551 134.731 34.2656 134.347 34.2656C133.934 34.2656 133.601 34.3551 133.35 34.5341C133.098 34.7131 132.939 34.9602 132.87 35.2756L129.988 35.1733C130.073 34.5767 130.292 34.044 130.646 33.5753C131.004 33.1023 131.494 32.7315 132.116 32.4631C132.743 32.1903 133.495 32.054 134.373 32.054C134.999 32.054 135.576 32.1286 136.105 32.2777C136.633 32.4226 137.093 32.6357 137.486 32.9169C137.878 33.1939 138.18 33.5348 138.393 33.9396C138.611 34.3445 138.719 34.8068 138.719 35.3267V42H135.779V40.6321H135.702C135.527 40.9645 135.304 41.2457 135.031 41.4759C134.763 41.706 134.445 41.8786 134.079 41.9936C133.716 42.1087 133.307 42.1662 132.851 42.1662ZM133.816 40.1207C134.153 40.1207 134.456 40.0526 134.724 39.9162C134.997 39.7798 135.214 39.5923 135.376 39.3537C135.538 39.1108 135.619 38.8295 135.619 38.5099V37.5767C135.53 37.6236 135.421 37.6662 135.293 37.7045C135.169 37.7429 135.033 37.7791 134.884 37.8132C134.735 37.8473 134.581 37.8771 134.424 37.9027C134.266 37.9283 134.115 37.9517 133.97 37.973C133.676 38.0199 133.424 38.0923 133.216 38.1903C133.011 38.2884 132.853 38.4162 132.743 38.5739C132.636 38.7273 132.583 38.9105 132.583 39.1236C132.583 39.4474 132.698 39.6946 132.928 39.8651C133.162 40.0355 133.459 40.1207 133.816 40.1207ZM135.753 28.7045H137.812C137.807 29.5057 137.505 30.1491 136.904 30.6349C136.307 31.1207 135.498 31.3636 134.475 31.3636C133.452 31.3636 132.64 31.1207 132.04 30.6349C131.443 30.1491 131.147 29.5057 131.151 28.7045H133.19C133.186 28.9858 133.282 29.2415 133.478 29.4716C133.674 29.7017 134.006 29.8168 134.475 29.8168C134.931 29.8168 135.257 29.7038 135.453 29.478C135.649 29.2521 135.749 28.9943 135.753 28.7045Z" fill="#2D3142"/>
</svg>
